<svg xmlns="http://www.w3.org/2000/svg" viewBox="0 0 795.55 394.64"><defs><style>.cls-1{fill:#66a3c3;}.cls-2{fill:#fccd47;stroke:#fbb01d;stroke-miterlimit:10;stroke-width:0.75px;}.cls-3{fill:#fff;}.cls-4{fill:#d3ba97;}</style></defs><g id="bird"><path id="Icon_ionic-logo-twitter" data-name="Icon ionic-logo-twitter" class="cls-1" d="M1233.34,496.68a156.46,156.46,0,0,0,44.21-12.91,77.54,77.54,0,0,1-51.43-18.57,153.81,153.81,0,0,0,51.66-9.81,77.3,77.3,0,0,1,141.61-25.22,75.6,75.6,0,0,1,7.56,16.07,219.11,219.11,0,0,0,93.21-152.54A77.47,77.47,0,0,1,1554,394.28a75.61,75.61,0,0,0,24.84-26.67l.5.82a77.39,77.39,0,0,1-13,97.15,77.77,77.77,0,0,0,18.76-8.38,73,73,0,0,0,11.62-8.86,77.46,77.46,0,0,1-33.3,83.69,155,155,0,0,0,99.16-22.23,157.37,157.37,0,0,0,15.12-10.63,216.12,216.12,0,0,1-82.38,91.9c-121.2,74.75-249.32,15.18-303-71.9-1.76-2.85-3.45-5.75-5-8.62A157.36,157.36,0,0,1,1233.34,496.68Z" transform="translate(-882.11 -293.7)"/></g><g id="coins"><ellipse class="cls-2" cx="1196.17" cy="558.41" rx="45.59" ry="44.74" transform="translate(-986.39 491.58) rotate(-34.92)"/><path class="cls-3" d="M1198.83,540.53l.56-3.85-2.87-.25L1196,540l-.55-.08c-1-.12-1.93-.2-2.88-.27l.5-3.43-2.86-.25-.5,3.57h-.52c-3.81,0-6.73.28-6.73.28l-4.7,34.73s2.13.53,5.22,1l1.7.24-.51,3.68,2.62.23.51-3.57c.86.08,2.45.22,3.42.26h.22l-.49,3.52,2.62.23.54-3.74c.51,0,1,0,1.52-.05,4.85-.32,9.1-1.74,10.2-5.48,3.34-11.43-7-12.77-9.1-12.58h0c2.36-.28,10.22-2.16,10.59-10.4C1207,543.75,1203.37,541.6,1198.83,540.53Zm1.85,24c.52.64,2.78,4.08-2,7.05a9.54,9.54,0,0,1-4.53,1.16,22.07,22.07,0,0,1-2.69,0,35.43,35.43,0,0,1-3.59-.47c-1-.17-1.85-.36-2.62-.54-1.54-.37-2.55-.69-2.55-.69l1.42-9.86c.92,0,1.77,0,2.59,0,1,0,1.89.08,2.74.14,1.33.09,2.5.22,3.54.36s1.91.32,2.68.5C1199.09,563,1200.25,564,1200.68,564.54Zm-1.84-11.6a7.74,7.74,0,0,1-1.92.85,12.84,12.84,0,0,1-2.87.47,21.85,21.85,0,0,1-3.54-.08c-1-.11-1.94-.25-2.74-.41-1.6-.31-2.68-.64-2.68-.64l1.43-9.87c1,0,1.86,0,2.7,0,1,0,2,.07,2.84.12,1.35.07,2.49.18,3.45.3a22.12,22.12,0,0,1,2.79.52c2.09.56,2.58,1.24,3,1.71C1201.78,546.59,1203.58,550,1198.84,552.94Z" transform="translate(-882.11 -293.7)"/><ellipse class="cls-2" cx="1110.81" cy="504.72" rx="45.59" ry="44.74" transform="translate(-971.03 433.05) rotate(-34.92)"/><path class="cls-3" d="M1113.47,486.84,1114,483l-2.86-.26-.5,3.59-.54-.08c-1-.12-1.93-.21-2.88-.27l.5-3.43-2.87-.25-.49,3.57h-.53a65.61,65.61,0,0,0-6.72.28l-4.71,34.72s2.14.54,5.22,1l1.7.23-.51,3.69,2.62.23.52-3.58c.85.08,2.45.22,3.41.27h.23l-.49,3.53,2.62.23.54-3.74c.5,0,1,0,1.51,0,4.85-.32,9.11-1.74,10.2-5.48,3.35-11.44-7-12.77-9.1-12.58h0c2.36-.27,10.21-2.15,10.59-10.39C1121.68,490.07,1118,487.92,1113.47,486.84Zm1.84,24c.53.64,2.78,4.08-2,7a9.44,9.44,0,0,1-4.54,1.16,21.88,21.88,0,0,1-2.68,0c-1.24-.1-2.46-.27-3.59-.47-1-.17-1.86-.36-2.62-.54-1.54-.37-2.56-.69-2.56-.69l1.43-9.87c.91,0,1.77,0,2.58.05,1,0,1.9.07,2.74.13,1.34.1,2.51.22,3.54.37s1.92.32,2.69.5C1113.72,509.29,1114.88,510.33,1115.31,510.86Zm-1.83-11.6a8.38,8.38,0,0,1-1.93.85,12.75,12.75,0,0,1-2.87.47,20.81,20.81,0,0,1-3.54-.09c-1-.1-1.93-.25-2.74-.4-1.59-.31-2.68-.64-2.68-.64l1.43-9.87c1,0,1.87,0,2.71,0,1,0,2,.06,2.84.11,1.34.08,2.48.19,3.45.31a21.92,21.92,0,0,1,2.78.52c2.1.56,2.59,1.24,3,1.71C1116.42,492.91,1118.22,496.29,1113.48,499.26Z" transform="translate(-882.11 -293.7)"/><ellipse class="cls-2" cx="1236.84" cy="577.85" rx="47.31" ry="43.11" transform="translate(-1007.35 375.91) rotate(-28.9)"/><path class="cls-3" d="M1246.66,562.16l2.1-3.38-2.57-1.19-1.93,3.16c-.16-.09-.31-.18-.48-.26-.84-.43-1.7-.83-2.56-1.2l1.87-3-2.57-1.19-1.93,3.15-.48-.18a65.46,65.46,0,0,0-6.38-2l-18.63,30.62s1.77,1.21,4.43,2.71l1.49.79-2,3.24,2.34,1.09,2-3.14c.76.36,2.19,1,3.07,1.38l.21.08-1.9,3.1L1225,597l2-3.28c.48.16,1,.32,1.43.45,4.65,1.32,9.19,1.42,11.75-1.68,7.81-9.48-1.31-14.18-3.31-14.69h0c2.32.54,10.4,1.41,14.13-6.1C1253,567.89,1250.45,564.67,1246.66,562.16ZM1238.52,585c.23.76.91,4.71-4.72,5.88a9.83,9.83,0,0,1-4.7-.44,21.35,21.35,0,0,1-2.48-.94,33.07,33.07,0,0,1-3.15-1.63c-.83-.48-1.58-.95-2.22-1.38-1.28-.85-2.1-1.48-2.1-1.48l5.38-8.68c.85.31,1.64.61,2.39.91s1.73.7,2.5,1c1.2.53,2.24,1,3.14,1.52s1.65.93,2.3,1.35C1237.68,583.05,1238.34,584.41,1238.52,585Zm3-11.37a8.93,8.93,0,0,1-2.14.15,13,13,0,0,1-2.86-.52,20.06,20.06,0,0,1-3.26-1.26c-.9-.43-1.7-.88-2.39-1.29a26.13,26.13,0,0,1-2.23-1.49l5.38-8.67c.9.33,1.73.64,2.5.94,1,.37,1.82.72,2.6,1.05,1.22.52,2.24,1,3.09,1.44a19.46,19.46,0,0,1,2.37,1.41c1.73,1.22,1.9,2,2.07,2.57C1246.92,568.76,1247.2,572.5,1241.57,573.67Z" transform="translate(-882.11 -293.7)"/><ellipse class="cls-2" cx="1147.17" cy="548.41" rx="45.59" ry="44.74" transform="translate(-989.49 461.73) rotate(-34.92)"/><path class="cls-3" d="M1149.83,530.53l.56-3.85-2.87-.25L1147,530l-.55-.08c-1-.12-1.93-.2-2.88-.27l.5-3.43-2.86-.25-.5,3.57h-.52c-3.81,0-6.73.28-6.73.28l-4.7,34.73s2.13.53,5.22,1l1.7.24-.51,3.68,2.62.23.51-3.57c.86.08,2.45.22,3.42.26h.22l-.49,3.52,2.62.23.54-3.74c.51,0,1,0,1.52-.05,4.85-.32,9.1-1.74,10.2-5.48,3.34-11.43-7-12.77-9.1-12.58h0c2.36-.28,10.22-2.16,10.59-10.4C1158,533.75,1154.37,531.6,1149.83,530.53Zm1.85,24c.52.64,2.78,4.08-2,7.05a9.54,9.54,0,0,1-4.53,1.16,22.07,22.07,0,0,1-2.69,0,35.43,35.43,0,0,1-3.59-.47c-1-.17-1.85-.36-2.62-.54-1.54-.37-2.55-.69-2.55-.69l1.42-9.86c.92,0,1.77,0,2.59,0,1,0,1.89.08,2.74.14,1.33.09,2.5.22,3.54.36s1.91.32,2.68.5C1150.09,553,1151.25,554,1151.68,554.54Zm-1.84-11.6a7.74,7.74,0,0,1-1.92.85,12.84,12.84,0,0,1-2.87.47,21.85,21.85,0,0,1-3.54-.08c-1-.11-1.94-.25-2.74-.41-1.6-.31-2.68-.64-2.68-.64l1.43-9.87c1,0,1.86,0,2.7,0,1,0,2,.07,2.84.12,1.35.07,2.49.18,3.45.3a22.12,22.12,0,0,1,2.79.52c2.09.56,2.58,1.24,3,1.71C1152.78,536.59,1154.58,540,1149.84,542.94Z" transform="translate(-882.11 -293.7)"/><ellipse class="cls-2" cx="1057.81" cy="538.72" rx="45.59" ry="44.74" transform="translate(-1000.04 408.83) rotate(-34.92)"/><path class="cls-3" d="M1060.47,520.84,1061,517l-2.86-.26-.5,3.59-.54-.08c-1-.12-1.93-.21-2.88-.27l.5-3.43-2.87-.25-.49,3.57h-.53a65.61,65.61,0,0,0-6.72.28l-4.71,34.72s2.14.54,5.22,1l1.7.23-.51,3.69,2.62.23.52-3.58c.85.08,2.45.22,3.41.27h.23l-.49,3.53,2.62.23.54-3.74c.5,0,1,0,1.51,0,4.85-.32,9.11-1.74,10.2-5.48,3.35-11.44-7-12.77-9.1-12.58h0c2.36-.27,10.21-2.15,10.59-10.39C1068.68,524.07,1065,521.92,1060.47,520.84Zm1.84,24c.53.64,2.78,4.08-2,7a9.44,9.44,0,0,1-4.54,1.16,21.88,21.88,0,0,1-2.68,0c-1.24-.1-2.46-.27-3.59-.47-1-.17-1.86-.36-2.62-.54-1.54-.37-2.56-.69-2.56-.69l1.43-9.87c.91,0,1.77,0,2.58,0,1,0,1.9.07,2.74.13,1.34.1,2.51.22,3.54.37s1.92.32,2.69.5C1060.72,543.29,1061.88,544.33,1062.31,544.86Zm-1.83-11.6a8.38,8.38,0,0,1-1.93.85,12.75,12.75,0,0,1-2.87.47,20.81,20.81,0,0,1-3.54-.09c-1-.1-1.93-.25-2.74-.4-1.59-.31-2.68-.64-2.68-.64l1.43-9.87c1,0,1.87,0,2.71,0,1,0,2,.06,2.84.11,1.34.08,2.48.19,3.45.31a21.92,21.92,0,0,1,2.78.52c2.1.56,2.59,1.24,3,1.71C1063.42,526.91,1065.22,530.29,1060.48,533.26Z" transform="translate(-882.11 -293.7)"/><ellipse class="cls-2" cx="965.81" cy="570.72" rx="45.59" ry="44.74" transform="translate(-1034.92 361.92) rotate(-34.92)"/><path class="cls-3" d="M968.47,552.84,969,549l-2.86-.26-.5,3.59-.54-.08c-1-.12-1.93-.21-2.88-.27l.5-3.43-2.87-.25-.49,3.57h-.53a65.61,65.61,0,0,0-6.72.28l-4.71,34.72s2.14.54,5.22,1l1.7.23-.51,3.69,2.62.23.52-3.58c.85.08,2.45.22,3.41.27h.23l-.49,3.53,2.62.23.54-3.74c.5,0,1,0,1.51,0,4.85-.32,9.11-1.74,10.2-5.48,3.35-11.44-7-12.77-9.1-12.58h0c2.36-.27,10.21-2.15,10.59-10.39C976.68,556.07,973,553.92,968.47,552.84Zm1.84,24c.53.64,2.78,4.08-2,7a9.44,9.44,0,0,1-4.54,1.16,21.88,21.88,0,0,1-2.68,0c-1.24-.1-2.46-.27-3.59-.47-1-.17-1.86-.36-2.62-.54-1.54-.37-2.56-.69-2.56-.69l1.43-9.87c.91,0,1.77,0,2.58,0,1,0,1.9.07,2.74.13,1.34.1,2.51.22,3.54.37s1.92.32,2.69.5C968.72,575.29,969.88,576.33,970.31,576.86Zm-1.83-11.6a8.38,8.38,0,0,1-1.93.85,12.75,12.75,0,0,1-2.87.47,20.81,20.81,0,0,1-3.54-.09c-1-.1-1.93-.25-2.74-.4-1.59-.31-2.68-.64-2.68-.64l1.43-9.87c1,0,1.87,0,2.71,0,1,0,2,.06,2.84.11,1.34.08,2.48.19,3.45.31a21.92,21.92,0,0,1,2.78.52c2.1.56,2.59,1.24,3,1.71C971.42,558.91,973.22,562.29,968.48,565.26Z" transform="translate(-882.11 -293.7)"/><ellipse class="cls-2" cx="1172.34" cy="584.03" rx="45.59" ry="44.74" transform="translate(-1005.35 482.55) rotate(-34.92)"/><path class="cls-3" d="M1175,566.15l.56-3.84-2.87-.26-.49,3.59-.55-.08c-1-.13-1.92-.21-2.87-.27l.49-3.43-2.86-.26-.5,3.58h-.52a65.93,65.93,0,0,0-6.73.28l-4.7,34.72s2.13.54,5.22,1l1.7.24-.51,3.69,2.62.23.51-3.58c.86.08,2.45.22,3.42.27h.22l-.49,3.52,2.62.23.54-3.73c.51,0,1,0,1.52-.05,4.85-.33,9.1-1.74,10.2-5.49,3.34-11.43-7-12.76-9.1-12.58h0c2.36-.27,10.22-2.16,10.59-10.39C1183.21,569.38,1179.55,567.22,1175,566.15Zm1.85,24c.52.64,2.78,4.09-2,7.05a9.43,9.43,0,0,1-4.53,1.16,22.07,22.07,0,0,1-2.69,0,35.86,35.86,0,0,1-3.59-.46c-1-.17-1.85-.36-2.62-.55-1.53-.36-2.55-.68-2.55-.68l1.42-9.87c.92,0,1.77,0,2.59,0,1,0,1.89.07,2.74.13,1.33.09,2.5.22,3.54.37s1.91.31,2.69.5C1175.26,588.6,1176.42,589.64,1176.85,590.16ZM1175,578.57a7.71,7.71,0,0,1-1.92.84,12.3,12.3,0,0,1-2.87.48,21.83,21.83,0,0,1-3.54-.09c-1-.1-1.94-.25-2.74-.4-1.6-.32-2.68-.64-2.68-.64l1.43-9.87c1,0,1.86,0,2.7,0,1,0,2,.07,2.84.12,1.35.08,2.49.18,3.45.31a22.12,22.12,0,0,1,2.79.52,4.68,4.68,0,0,1,3,1.7C1178,572.21,1179.75,575.6,1175,578.57Z" transform="translate(-882.11 -293.7)"/><ellipse class="cls-2" cx="1006.71" cy="575.37" rx="46.82" ry="43.57" transform="matrix(0.85, -0.53, 0.53, 0.85, -1034.25, 321.53)"/><path class="cls-3" d="M1014.52,558.78l1.66-3.57-2.69-.93-1.53,3.34-.5-.21c-.9-.35-1.8-.66-2.7-.94l1.48-3.19-2.69-.92-1.53,3.32-.5-.13a63.56,63.56,0,0,0-6.58-1.33l-14.72,32.32s1.9,1,4.74,2.24l1.57.64L989,592.84l2.46.85,1.55-3.32c.8.28,2.29.79,3.22,1.07l.21,0-1.5,3.28,2.46.84,1.62-3.46c.49.1,1,.22,1.47.31,4.78.84,9.31.49,11.47-2.86,6.58-10.21-3.06-14-5.11-14.28h0c2.37.3,10.51.35,13.28-7.49C1021.51,563.84,1018.59,560.89,1014.52,558.78Zm-5.26,23.57c.32.74,1.49,4.59-4,6.32a9.74,9.74,0,0,1-4.72,0A20,20,0,0,1,998,588a31.63,31.63,0,0,1-3.33-1.31c-.89-.39-1.69-.79-2.37-1.14-1.38-.72-2.27-1.27-2.27-1.27l4.27-9.16c.88.22,1.7.44,2.48.65.94.27,1.81.53,2.61.79,1.26.4,2.35.8,3.31,1.19s1.76.76,2.45,1.12C1008.19,580.46,1009,581.74,1009.26,582.35Zm1.63-11.61a8.63,8.63,0,0,1-2.11.36,13.08,13.08,0,0,1-2.91-.23,21.07,21.07,0,0,1-3.39-.92c-.94-.34-1.8-.7-2.53-1.05-1.45-.68-2.4-1.25-2.4-1.25l4.27-9.17c.94.24,1.8.46,2.6.68,1,.28,1.9.54,2.71.79,1.28.4,2.35.77,3.24,1.12a21.55,21.55,0,0,1,2.54,1.16c1.86,1,2.14,1.81,2.37,2.35C1015.59,565.32,1016.34,569,1010.89,570.74Z" transform="translate(-882.11 -293.7)"/><ellipse class="cls-2" cx="1086.95" cy="585.32" rx="45.59" ry="44.74" transform="translate(-1021.46 433.9) rotate(-34.92)"/><path class="cls-3" d="M1089.61,567.44l.56-3.85-2.87-.25-.5,3.58-.54-.08c-1-.12-1.93-.2-2.88-.27l.5-3.43-2.87-.25-.49,3.57H1080c-3.82,0-6.73.28-6.73.28l-4.71,34.73s2.14.53,5.23,1l1.7.24-.52,3.68,2.62.23.52-3.57c.86.08,2.45.22,3.42.26h.22l-.49,3.52,2.62.23.54-3.74c.51,0,1,0,1.51-.05,4.86-.32,9.11-1.74,10.21-5.48,3.34-11.43-7-12.77-9.1-12.58h0c2.36-.28,10.21-2.16,10.59-10.4C1097.82,570.66,1094.15,568.51,1089.61,567.44Zm1.85,24c.52.64,2.77,4.08-2,7a9.54,9.54,0,0,1-4.53,1.16,22,22,0,0,1-2.69,0,35.43,35.43,0,0,1-3.59-.47c-1-.17-1.86-.36-2.62-.54-1.54-.37-2.56-.69-2.56-.69l1.43-9.86c.91,0,1.77,0,2.59,0,1,0,1.89.08,2.74.14,1.33.09,2.5.22,3.54.36s1.91.32,2.68.5C1089.86,589.88,1091,590.92,1091.46,591.45Zm-1.84-11.6a8,8,0,0,1-1.93.85,12.76,12.76,0,0,1-2.86.47,21.85,21.85,0,0,1-3.54-.08c-1-.11-1.94-.25-2.74-.41-1.6-.31-2.68-.64-2.68-.64l1.42-9.87c1,0,1.87,0,2.71,0,1,0,2,.07,2.84.12,1.34.07,2.49.18,3.45.3a21.92,21.92,0,0,1,2.78.52c2.1.56,2.59,1.24,3,1.71C1092.56,573.5,1094.36,576.88,1089.62,579.85Z" transform="translate(-882.11 -293.7)"/></g><g id="nest"><polygon class="cls-3" points="162.99 340.64 116.99 340.64 116.99 365.64 234.99 363.64 231.99 338.64 162.99 340.64"/><path id="Subtraction_4" data-name="Subtraction 4" class="cls-4" d="M1088.66,688.34c-5.44,0-11.11-.12-15.67-.22h-.29a53.75,53.75,0,0,1-10.67-1.66h0l-.13,0c-1.4-.32-2.85-.64-4.28-.91a41,41,0,0,0-7.84-.64l-2.16,0h-.12l-2.46,0h-1.4c-5-.07-9.76-1.34-14.33-2.56s-9.46-2.53-14.6-2.57c-1.61,0-3.22.15-4.82.32h-.12c-1.93.22-3.88.34-5.84.38-2.41,0-3.94-.36-4.69-1.1s-.71-2.09.34-3.9l.54,0a10.83,10.83,0,0,0,2-.24,12.28,12.28,0,0,1,1.72-.24c.55-2.11-2.94-3.51-5.75-4.63h0q-1.23-.46-2.37-1c-6.11-3.18-11.39-5.92-18.58-8-2.78-.81-4.2-2.92-3.28-4.87l-.89,0h0c-5.26-.25-11.22-.53-16.08-2.1a16.53,16.53,0,0,1-5.29-3.1,16.24,16.24,0,0,0-5-3c-3.91-1.32-9.23-1.41-13.92-1.49h0c-1.28,0-2.35,0-3.38-.08-3.63-.12-8.57-.91-10.54-2.74a2.44,2.44,0,0,1-.7-2.88c1,0,2,0,3.11,0h3.17c1.15,0,2.51,0,3.84-.08-.92-3.94-6.1-7.94-10.27-11.15-.7-.53-1.49-1.14-2.19-1.71-4.3-3.43-9.51-7.23-16.86-8.78l-.9-.19h0c-2.17-.41-5.8-1.11-6.54-2.52-.42-1.2.67-2.41,2.43-2.7a4.37,4.37,0,0,1,1-.06,29.61,29.61,0,0,1,3.9.4,31.27,31.27,0,0,0,4.35.43,6.18,6.18,0,0,0,3.18-.68c-.1-.21-.18-.4-.25-.58a2.09,2.09,0,0,0-1.71-1.49.64.64,0,0,1,0-.41.6.6,0,0,0-.1-.48l-1.16-.28h0a62,62,0,0,1-8.56-2.43,33,33,0,0,1-7.66-6c-3.08-3.1-4.76-5.65-4.6-7,.23-1.83,1.5-2.72,3.88-2.72,2.92,0,7,1.36,10.24,2.45a23.81,23.81,0,0,0,5.19,1.42c.36,0,.59-.1.66-.29.89-2.53-1.65-5.86-4.1-9.07-2.57-3.38-5-6.58-3.08-8.44a5.52,5.52,0,0,1,3.87-1.13,29.47,29.47,0,0,1,11.14,2.87c2.49,1.29,4.44,2.44,6.32,3.56a50.75,50.75,0,0,0,14.4,6.37A135.78,135.78,0,0,0,963.21,595l0-.22,0-.37c-.22-2.1-.46-4.28-.67-6.41h0c.8,0,17.18,4,18.67,4.49,4.28,1.3,8.53,1.5,13,1.71h.07c2.08.1,4.23.2,6.37.42,3.4.35,6.84.91,10.17,1.45l.15,0c3.09.5,6.28,1,9.44,1.38,2.69.3,5.32.62,8.43,1l.17,0h0q11.23,1.51,22.66,2.23c.59,0,1.15,0,1.7,0,4,0,4.19-.43,5.5-2.84l.07-.14a1.39,1.39,0,0,0,.11-.21c1-1.79,2.58-4.79,5.18-5.53a8,8,0,0,1,2.09-.27c3.17,0,6.91,1.51,9.91,2.73h0c.8.31,1.62.65,2.32.9a66.18,66.18,0,0,0,14.57,3.27,129.91,129.91,0,0,0,15.92.86c7.48,0,15-.44,21.64-.83h.06l3.7-.19.64,0,.64,0c4.59-.23,9.68-.47,15.13-.71,11.09-.37,22.46-1.19,33.45-2h.07l7.8-.56h0c5.8-.41,12.36-.87,17.69-3.17.56-.24,1.11-.5,1.7-.77l.07,0c2.36-1.1,4.81-2.25,7.3-2.25a7.25,7.25,0,0,1,2,.29c.1,0,3.74,4.87,4,5.31,0,0,0,0,0,0a5.79,5.79,0,0,0,3.73,1.48,14.8,14.8,0,0,0,2.76-.38h0c.58-.11,1.2-.24,1.91-.35A84.35,84.35,0,0,0,1243,593h0c1.91-.56,4.07-1.19,6.24-1.7,2.43-.56,4.92-1,7.33-1.49h0c2.77-.51,5.62-1.05,8.41-1.75a74.91,74.91,0,0,1,17.3-2.31c2.46,0,3.8.34,4.12,1,1.87,4.16,3.64,6.1,5.58,6.1s3.9-2,6-4.14h0c1.84-1.9,3.74-3.87,6-4.9a8.81,8.81,0,0,1,3.54-.89,4,4,0,0,1,3.61,2,7.46,7.46,0,0,1,.66,5,6.37,6.37,0,0,1-2.47,4.17,49.2,49.2,0,0,1,6.32-3.21h0l.06,0q2.5-1.08,4.83-2.33a17.79,17.79,0,0,1,8.23-2.09,7.56,7.56,0,0,1,4.87,1.36c1.12,1,1.32,2.44.59,4.29a15.53,15.53,0,0,1-2.64,1.08,24.56,24.56,0,0,0-9.91,6.12c-1.18,1.06-2.4,2.16-4,3.34a21.28,21.28,0,0,1-2.71,1.5h0c-2,1-4.36,2.19-4.56,3.15s-.1,1.57.32,1.9a1.47,1.47,0,0,0,.94.26c1.36,0,3.46-1,4.85-1.65h0l.3-.14.35-.17a20.94,20.94,0,0,1,7.47-2c2,0,3.34.77,3.85,2.27.8,2.38-2.66,4.57-5.71,6.51a20.68,20.68,0,0,0-3.65,2.67,44.35,44.35,0,0,0-4.72,6.46v0a41.06,41.06,0,0,1-5.37,7.16,50.56,50.56,0,0,1-13.9,10.06,13.4,13.4,0,0,1-1.51.53h0c-1.73.56-4.1,1.31-3.93,2.46.13.93,1.11,1.39,2.91,1.39a22.66,22.66,0,0,0,5-.72,27.52,27.52,0,0,0,3.55-1.26,16.4,16.4,0,0,1,6-1.59,7.79,7.79,0,0,1,3,.58c-.51,2.57-2.46,3.1-5.16,3.85-.76.21-1.62.44-2.53.76A58.74,58.74,0,0,0,1297,649a50,50,0,0,1-6.66,2.66,95.22,95.22,0,0,0-13.7,4.9,34.19,34.19,0,0,1-5.42,1.84h0a26.89,26.89,0,0,0-6.17,2.26,13.87,13.87,0,0,1,2.75-.31c2.52,0,3.71.92,3.77,1.82.09,1.21-1.72,2.62-5.91,2.9-.68,0-1.45.07-2.36.07s-1.58,0-2.27,0-1.47,0-2.23,0a27.14,27.14,0,0,0-4,.25,24.23,24.23,0,0,0-5.92,2l-.1,0c-.91.4-1.77.77-2.67,1.09a66.94,66.94,0,0,1-11.14,2.58h0c-2.88.45-5.72,1-8.5,1.73-7.17,1.89-14.51,3.51-21.6,5.07l-.11,0h-.07c-3.76.83-7.65,1.69-11.49,2.58a269.93,269.93,0,0,1-61.87,6.68c-9.7,0-18.88.43-28.6.89h-.11l-2.33.11C1096.76,688.26,1093,688.34,1088.66,688.34Zm-83.13-53.7c1.66,1.66,4.51,2.59,7.05,3.33l.5.15.12,0,.38.11,1.42.42a90.43,90.43,0,0,0,11.1,2.74c5.16.86,10.39,1.57,15.52,2.11q9.6.88,19.29.92c3.67.06,7.45.13,11.2.3-8.43-.4-16.3-1.47-24.63-2.6l-5-.66c-8.65-1.15-17.1-2.51-25.72-3.92-1.46-.22-2.9-.49-4.31-.82-1.56-.39-3.08-.84-4.57-1.35h0l-1.16-.37Zm33.41-.75h0c1.73,1.24,5.19,2.14,10.58,2.75,2.23.26,4.47.42,6.26.56l2.92.24c7.61.66,15.28,1,23,1h2.47a63.7,63.7,0,0,0,10.81-.73,68,68,0,0,0,13.52-4.26l-14.32.91-4.47.29-5,.31-.29,0c-5.38.34-11,.7-16.46.7-2.43,0-4.64-.06-6.76-.2-2.7-.17-5.42-.44-8.06-.7H1053c-4.59-.53-9.24-.83-13.9-.91Z" transform="translate(-882.11 -293.7)"/></g></svg>